<?xml version="1.0" encoding="iso-8859-1"?>
<!-- Generator: Adobe Illustrator 19.0.0, SVG Export Plug-In . SVG Version: 6.00 Build 0)  -->
<svg version="1.1" id="Capa_1" xmlns="http://www.w3.org/2000/svg" xmlns:xlink="http://www.w3.org/1999/xlink" x="0px" y="0px"
	 viewBox="0 0 512 512" style="enable-background:new 0 0 512 512;" xml:space="preserve">
<g>
	<g>
		<path d="M493.984,0.359L387.543,21.645c-2.914,0.583-5.591,2.015-7.692,4.116L185.316,220.297l-10.604-10.683
			c-17.649-17.649-46.213-17.65-63.864,0l-42.575,42.575c-5.875,5.875-5.878,15.41,0,21.288
			c14.128,14.128,33.363,21.807,53.083,21.806c3.513,0,7.043-0.244,10.56-0.739l10.864,10.864l-8.216,8.217
			c-39.164,14.137-71.15,44.485-87.337,83.171h-2.069C20.258,396.795,0,417.053,0,441.954v24.941
			c0,24.9,20.258,45.058,45.159,45.058h24.941c24.9,0,45.158-20.158,45.158-45.058v-2.068c38.474-16.091,68.967-47.962,83.17-87.338
			l8.217-8.216l10.864,10.864c-3.271,23.26,4.424,47,21.068,63.643c5.88,5.879,15.411,5.878,21.288,0l42.575-42.575
			c17.516-17.516,17.798-46.067-0.043-63.906l-10.643-10.558l194.538-194.538c2.101-2.101,3.533-4.778,4.117-7.692l21.288-106.44
			C513.829,7.548,504.415-1.79,493.984,0.359z M397.917,50.272l53.22-10.644L242.665,248.099h-29.751l-6.388-6.437L397.917,50.272z
			 M85.215,466.894c0,8.3-6.816,15.053-15.116,15.053H45.159c-8.3,0-15.137-6.753-15.137-15.053v-24.941
			c0-8.3,6.837-15.253,15.137-15.253h6.235l33.822,33.959V466.894z M103.989,436.92L75.13,408.061
			c4.068-9.65,9.386-18.663,15.737-26.839l39.96,39.96C122.652,427.529,113.642,432.846,103.989,436.92z M152.118,399.897
			l-39.963-39.963c8.178-6.351,17.189-11.669,26.839-15.737l14.431,14.431l14.432,14.432
			C163.787,382.708,158.47,391.719,152.118,399.897z M281.153,379.915l-30.097,30.096c-4.458-9.432-5.488-20.302-2.664-30.989
			c1.369-5.181-0.12-10.7-3.91-14.489l-27.194-27.193c-5.879-5.879-15.409-5.879-21.288,0l-10.644,10.644l-10.644-10.644
			l-10.644-10.643l10.643-10.644c5.879-5.879,5.879-15.409,0-21.288l-27.193-27.193c-3.789-3.789-9.309-5.279-14.489-3.91
			c-10.685,2.824-21.555,1.793-30.989-2.665l30.096-30.096c5.93-5.93,15.464-5.823,21.248-0.04l42.576,42.897
			c2.826,2.847,6.672,4.449,10.683,4.449h27.178v27.202c0,4.013,1.603,7.861,4.453,10.686l42.879,42.533
			C287.036,364.511,287.036,374.031,281.153,379.915z M461.78,114.136L270.379,305.538l-6.453-6.4v-29.723L472.424,60.916
			L461.78,114.136z"/>
	</g>
</g>
<g>
</g>
<g>
</g>
<g>
</g>
<g>
</g>
<g>
</g>
<g>
</g>
<g>
</g>
<g>
</g>
<g>
</g>
<g>
</g>
<g>
</g>
<g>
</g>
<g>
</g>
<g>
</g>
<g>
</g>
</svg>
